<svg width="14" height="14" viewBox="0 0 14 14" fill="none" xmlns="http://www.w3.org/2000/svg">
<path d="M12.8873 9.84741L11.4654 9.02645L12.6976 8.29983C12.9249 8.1658 13.0005 7.87291 12.8665 7.64563C12.7325 7.41841 12.4397 7.3428 12.2123 7.47676L10.5148 8.47768L7.95545 6.99997L10.5144 5.52252L12.2124 6.5233C12.2885 6.56821 12.3721 6.58949 12.4545 6.58949C12.6181 6.58949 12.7774 6.5054 12.8665 6.35424C13.0005 6.12696 12.9248 5.83407 12.6975 5.70005L11.4651 4.97368L12.8873 4.15252C13.1158 4.0206 13.1941 3.72841 13.0622 3.49992C12.9303 3.27137 12.6381 3.19308 12.4096 3.32506L10.9876 4.14609L10.9747 2.71533C10.9723 2.45149 10.7559 2.23828 10.4927 2.24191C10.2288 2.24427 10.0168 2.46009 10.0193 2.72393L10.037 4.69486L7.47777 6.17251V3.21748L9.19365 2.24771C9.42335 2.11789 9.50431 1.82646 9.37449 1.5967C9.24467 1.367 8.95318 1.28597 8.72348 1.41585L7.47777 2.11993V0.477748C7.47777 0.213904 7.26386 0 7.00002 0C6.73617 0 6.52227 0.213904 6.52227 0.477748V2.11993L5.27656 1.41592C5.04673 1.28603 4.75543 1.367 4.62555 1.59676C4.49573 1.82646 4.57669 2.11795 4.80639 2.24777L6.52221 3.21754V6.17251L3.96294 4.69486L3.98071 2.72393C3.98313 2.46009 3.77114 2.24427 3.5073 2.24191C3.50583 2.24191 3.50443 2.24191 3.5029 2.24191C3.2411 2.24191 3.02764 2.45295 3.02528 2.71539L3.01235 4.14609L1.59038 3.32506C1.36189 3.19308 1.0697 3.27143 0.937775 3.49992C0.805853 3.72841 0.88414 4.0206 1.11263 4.15252L2.53486 4.97368L1.3022 5.70017C1.07492 5.83414 0.999245 6.12703 1.13321 6.35437C1.22232 6.50553 1.38163 6.58961 1.54528 6.58961C1.62771 6.58961 1.71122 6.56827 1.7874 6.52343L3.48557 5.52264L6.04459 7.0001L3.48513 8.4778L1.7874 7.4767C1.56025 7.34274 1.26723 7.41828 1.13321 7.64557C0.999181 7.87285 1.07479 8.16574 1.30207 8.2997L2.53454 9.02639L1.11257 9.84735C0.884076 9.97927 0.805789 10.2715 0.937711 10.5C1.02619 10.6532 1.18678 10.7389 1.35189 10.7389C1.43291 10.7389 1.51509 10.7183 1.59032 10.6748L3.01229 9.85378L3.02522 11.2846C3.02757 11.547 3.24103 11.7581 3.50284 11.7581C3.5043 11.7581 3.50577 11.7581 3.50723 11.758C3.77108 11.7557 3.98307 11.5399 3.98065 11.276L3.96288 9.30501L6.52221 7.82736V10.7825L4.80639 11.7522C4.57669 11.882 4.49573 12.1735 4.62555 12.4032C4.71339 12.5587 4.87525 12.646 5.04189 12.646C5.12151 12.646 5.20228 12.6261 5.27656 12.5841L6.52227 11.8801V13.5223C6.52227 13.7861 6.73617 14 7.00002 14C7.26386 14 7.47777 13.7861 7.47777 13.5223V11.8801L8.72348 12.5841C8.79775 12.6261 8.87846 12.646 8.95815 12.646C9.12479 12.646 9.28665 12.5587 9.37449 12.4032C9.50431 12.1735 9.42335 11.882 9.19365 11.7522L7.47777 10.7825V7.82743L10.037 9.30501L10.0188 11.2759C10.0163 11.5398 10.2283 11.7557 10.4921 11.7581C10.4936 11.7582 10.4951 11.7582 10.4966 11.7582C10.7584 11.7582 10.9718 11.5471 10.9742 11.2848L10.9875 9.85378L12.4097 10.6749C12.4849 10.7183 12.5671 10.739 12.6481 10.739C12.8132 10.739 12.9738 10.6532 13.0623 10.5C13.1942 10.2715 13.1159 9.97933 12.8873 9.84741Z" fill="black"/>
</svg>
