<svg width="36" height="36" viewBox="0 0 36 36" fill="none" xmlns="http://www.w3.org/2000/svg">
<g clip-path="url(#clip0)">
<path d="M1 7.94482V36H34.003V7.94482H1ZM14.5724 9.95387C15.1659 9.95387 15.6054 10.439 15.6311 11.0126C15.6568 11.5843 15.1262 12.0713 14.5724 12.0713C13.9789 12.0713 13.5394 11.5862 13.5137 11.0126C13.4881 10.4409 14.0187 9.95387 14.5724 9.95387ZM6.24406 12.0713C5.65055 12.0713 5.21106 11.5862 5.18537 11.0126C5.15974 10.4408 5.69029 9.95387 6.24406 9.95387C6.83756 9.95387 7.27706 10.439 7.30275 11.0126C7.32837 11.5843 6.79782 12.0713 6.24406 12.0713ZM10.4083 12.0713C9.81475 12.0713 9.37525 11.5862 9.34956 11.0126C9.32394 10.4408 9.85448 9.95387 10.4083 9.95387C11.0018 9.95387 11.4413 10.439 11.4669 11.0126C11.4926 11.5843 10.962 12.0713 10.4083 12.0713ZM21.191 23.4818L22.8287 22.7465L23.6959 24.6782L22.247 25.3286L22.4081 26.9086L20.3016 27.1234L20.1163 25.3063L18.573 24.4152V26.2231L20.0285 27.2737L18.7892 28.9906L17.5015 28.061L16.2138 28.9906L14.9745 27.2737L16.4556 26.2046V24.4078L14.8915 25.3108L14.7078 27.1124L12.6013 26.8976L12.7624 25.3176L11.3136 24.6672L12.1808 22.7355L13.8328 23.4772L15.3905 22.5779L13.8393 21.6822L12.1871 22.4239L11.3199 20.4922L12.7688 19.8418L12.6076 18.2619L14.7142 18.047L14.8979 19.8486L16.4556 20.7479V18.9566L14.9872 17.8967L16.2265 16.1798L17.5143 17.1094L18.802 16.1798L20.0413 17.8967L18.573 18.9565V20.7405L20.1259 19.8439L20.308 18.058L22.4145 18.2729L22.2534 19.8529L23.7023 20.5032L22.835 22.4349L21.1686 21.6869L19.6253 22.5779L21.191 23.4818Z" fill="black"/>
<path d="M34.0039 5.82747V3.64056C34.0039 1.63314 32.3707 0 30.3634 0H4.64147C2.63412 0 1.00098 1.63314 1.00098 3.64056V5.82747H34.0039Z" fill="black"/>
</g>
<defs>
<clipPath id="clip0">
<rect width="36" height="36" fill="white"/>
</clipPath>
</defs>
</svg>
