<svg width="36" height="36" viewBox="0 0 36 36" fill="none" xmlns="http://www.w3.org/2000/svg">
<g clip-path="url(#clip0)">
<path d="M15 33.0001C16.6568 33.0001 18 31.6569 18 30C18 28.3432 16.6568 27 15 27C13.3431 27 11.9999 28.3432 11.9999 30C11.9999 31.6569 13.3431 33.0001 15 33.0001Z" fill="black"/>
<path d="M33 31.5V30C33 29.1731 32.3269 28.5 31.5 28.5V9C31.5 4.03713 27.4629 0 22.5 0C17.5371 0 13.5 4.03713 13.5 9V16.5H12.75C7.37402 16.5 2.99995 20.874 2.99995 26.25V28.5H0.749953C0.335461 28.5 0 28.8354 0 29.25V32.25C0 32.6646 0.335461 33 0.750023 33H3.00002C3.00002 34.6546 4.34545 36.0001 6.00005 36.0001H15C18.3084 36.0001 21 33.3084 21 30.0001C21 27.7894 19.7847 25.8756 18 24.8348V9C18 6.51853 20.0185 4.5 22.5 4.5C24.9815 4.5 27 6.51853 27 9V28.5C26.1731 28.5 25.5 29.1731 25.5 30V31.5C23.8454 31.5 22.5 32.8454 22.5 34.5V35.25C22.5 35.6646 22.8355 36.0001 23.25 36.0001H35.25C35.6646 36.0001 36.0001 35.6646 36.0001 35.25V34.5C36 32.8454 34.6546 31.5 33 31.5ZM19.5 30C19.5 32.4815 17.4814 34.5 15 34.5C12.5185 34.5 10.5 32.4815 10.5 30C10.5 27.5186 12.5185 25.5 15 25.5C17.4814 25.5 19.5 27.5186 19.5 30Z" fill="black"/>
</g>
<defs>
<clipPath id="clip0">
<rect width="36" height="36" fill="white"/>
</clipPath>
</defs>
</svg>
