<svg width="36" height="36" viewBox="0 0 36 36" fill="none" xmlns="http://www.w3.org/2000/svg">
<path d="M17.9999 15.571C14.1396 15.5276 11.0167 18.6505 10.9733 22.5108C10.93 26.371 14.0529 29.4939 17.9131 29.5373C21.7733 29.5806 24.8962 26.4578 24.9396 22.5975V22.5541C24.9396 18.6939 21.8601 15.571 17.9999 15.571Z" fill="black"/>
<path d="M27.5422 0H8.45789C5.335 0 2.81934 2.51566 2.81934 5.63855V30.3614C2.81934 33.4843 5.335 36 8.45789 36H27.5422C30.6651 36 33.1808 33.4843 33.1808 30.3614V5.63855C33.1808 2.51566 30.6651 0 27.5422 0ZM27.5422 22.5542C27.5422 27.8458 23.2916 32.0964 18.0001 32.1398C12.7085 32.1831 8.41452 27.8892 8.37114 22.5976C8.32777 17.306 12.6217 13.012 17.9133 12.9687C23.2049 12.9253 27.4989 17.2193 27.5422 22.5108V22.5542ZM23.9856 9.88916C23.0314 9.9759 22.0338 9.84578 21.1663 9.49879C19.1278 8.6747 16.8723 8.6747 14.8338 9.45542L14.6169 9.54217C13.7495 9.88916 12.8386 10.0193 11.8844 9.93253L5.37837 9.3253V5.68193C5.37837 3.99036 6.72295 2.64578 8.41452 2.64578H27.4989C29.1904 2.64578 30.535 3.99036 30.535 5.68193V9.23855H30.5784L23.9856 9.88916Z" fill="black"/>
<path d="M9.32534 8.02422C10.4033 8.02422 11.2771 7.15037 11.2771 6.07241C11.2771 4.99446 10.4033 4.12061 9.32534 4.12061C8.24739 4.12061 7.37354 4.99446 7.37354 6.07241C7.37354 7.15037 8.24739 8.02422 9.32534 8.02422Z" fill="black"/>
<path d="M14.5302 8.02422C15.6081 8.02422 16.482 7.15037 16.482 6.07241C16.482 4.99446 15.6081 4.12061 14.5302 4.12061C13.4522 4.12061 12.5784 4.99446 12.5784 6.07241C12.5784 7.15037 13.4522 8.02422 14.5302 8.02422Z" fill="black"/>
</svg>
