<svg width="36" height="36" viewBox="0 0 36 36" fill="none" xmlns="http://www.w3.org/2000/svg">
<path d="M18.274 7.72292C18.182 7.61007 18.0893 7.50615 18.0001 7.41235C17.911 7.50615 17.8182 7.61007 17.7262 7.72292C17.3692 8.16048 16.9437 8.83351 16.9437 9.55527C16.9437 10.1377 17.4176 10.6116 18.0001 10.6116C18.5826 10.6116 19.0565 10.1377 19.0565 9.55527C19.0565 8.83351 18.631 8.16048 18.274 7.72292Z" fill="black"/>
<path d="M5.67273 0V23.6907H30.3271V0H5.67273ZM17.3828 5.14153L17.9999 4.6961L18.6171 5.14153C18.7211 5.21648 21.1657 7.00994 21.1657 9.55519C21.1657 11.3008 19.7456 12.7209 17.9999 12.7209C16.2543 12.7209 14.8341 11.3008 14.8341 9.55519C14.8341 7.00994 17.2787 5.21655 17.3828 5.14153ZM21.755 21.5779H14.2448V19.4684H21.755V21.5779Z" fill="black"/>
<path d="M5.67273 25.8002V30.3067L11.1707 33.1843H13.1901V36H15.2996V33.1843H20.7002V36H22.8096V33.1843H24.8292L30.3271 30.3067V25.8002H5.67273Z" fill="black"/>
</svg>
