<svg width="300" height="72" viewBox="0 0 300 72" fill="none" xmlns="http://www.w3.org/2000/svg">
<path d="M144.368 29.616C144.368 32.24 143.248 34.24 141.008 35.616C144.208 36.864 145.808 39.344 145.808 43.056C145.808 46.512 144.784 49.2 142.736 51.12C140.688 53.04 137.792 54 134.048 54H120.176C119.536 54 119.216 53.68 119.216 53.04V20.64C119.216 20 119.536 19.68 120.176 19.68H133.808C137.136 19.68 139.728 20.56 141.584 22.32C143.44 24.048 144.368 26.48 144.368 29.616ZM128.576 45.792H133.184C134.112 45.792 134.848 45.536 135.392 45.024C135.936 44.48 136.208 43.712 136.208 42.72C136.208 40.8 135.088 39.84 132.848 39.84H128.576V45.792ZM134.816 30.144C134.816 28.48 133.904 27.648 132.08 27.648H128.576V32.688H132.08C133.904 32.688 134.816 31.84 134.816 30.144ZM177.598 40.848C177.598 45.36 176.43 48.8 174.094 51.168C171.79 53.504 168.414 54.672 163.966 54.672C159.518 54.672 156.126 53.504 153.79 51.168C151.486 48.8 150.334 45.36 150.334 40.848V20.64C150.334 20 150.654 19.68 151.294 19.68H158.83C159.47 19.68 159.79 20 159.79 20.64V41.04C159.79 44.208 161.182 45.792 163.966 45.792C166.75 45.792 168.142 44.208 168.142 41.04V20.64C168.142 20 168.462 19.68 169.102 19.68H176.638C177.278 19.68 177.598 20 177.598 20.64V40.848ZM182.083 19.68H207.475C208.115 19.68 208.435 20 208.435 20.64V27.456C208.435 28.096 208.115 28.416 207.475 28.416H199.459V53.04C199.459 53.68 199.139 54 198.499 54H191.059C190.419 54 190.099 53.68 190.099 53.04V28.416H182.083C181.443 28.416 181.123 28.096 181.123 27.456V20.64C181.123 20 181.443 19.68 182.083 19.68ZM221.576 40.752V45.6H234.824C235.464 45.6 235.784 45.92 235.784 46.56V53.04C235.784 53.68 235.464 54 234.824 54H213.176C212.536 54 212.216 53.68 212.216 53.04V20.64C212.216 20 212.536 19.68 213.176 19.68H234.008C234.648 19.68 234.968 20 234.968 20.64V27.12C234.968 27.76 234.648 28.08 234.008 28.08H221.576V32.544H232.136C232.776 32.544 233.096 32.864 233.096 33.504V39.792C233.096 40.432 232.776 40.752 232.136 40.752H221.576ZM265.202 51.264C262.034 53.536 258.338 54.672 254.114 54.672C249.378 54.672 245.746 53.52 243.218 51.216C240.722 48.88 239.474 45.632 239.474 41.472V32.16C239.474 28.032 240.754 24.816 243.314 22.512C245.906 20.176 249.506 19.008 254.114 19.008C258.05 19.008 261.474 19.984 264.386 21.936C264.93 22.288 265.01 22.72 264.626 23.232L260.93 28.944C260.61 29.456 260.162 29.552 259.586 29.232C258.082 28.336 256.37 27.888 254.45 27.888C252.754 27.888 251.426 28.336 250.466 29.232C249.506 30.128 249.026 31.28 249.026 32.688V40.896C249.026 42.464 249.49 43.68 250.418 44.544C251.346 45.376 252.626 45.792 254.258 45.792C256.402 45.792 258.354 45.248 260.114 44.16C260.658 43.808 261.09 43.888 261.41 44.4L265.154 50.112C265.538 50.624 265.554 51.008 265.202 51.264ZM286.931 32.352V20.64C286.931 20 287.251 19.68 287.891 19.68H295.331C295.971 19.68 296.291 20 296.291 20.64V53.04C296.291 53.68 295.971 54 295.331 54H287.891C287.251 54 286.931 53.68 286.931 53.04V41.088H278.435V53.04C278.435 53.68 278.115 54 277.475 54H270.035C269.395 54 269.075 53.68 269.075 53.04V20.64C269.075 20 269.395 19.68 270.035 19.68H277.475C278.115 19.68 278.435 20 278.435 20.64V32.352H286.931Z" fill="white"/>
<path d="M4.176 19.68H17.424C21.168 19.68 24.176 20.832 26.448 23.136C28.72 25.408 29.856 28.432 29.856 32.208C29.856 35.984 28.704 39.024 26.4 41.328C24.128 43.6 21.136 44.736 17.424 44.736H12.576V53.04C12.576 53.68 12.256 54 11.616 54H4.176C3.536 54 3.216 53.68 3.216 53.04V20.64C3.216 20 3.536 19.68 4.176 19.68ZM12.576 36.096H15.984C18.832 36.096 20.256 34.8 20.256 32.208C20.256 29.616 18.832 28.32 15.984 28.32H12.576V36.096Z" fill="white"/>
<path d="M100.785 33.3721C100.573 30.7337 99.9924 28.1669 99.0506 25.707L105.539 20.5102L94.9953 7.34457L88.5461 12.509C86.3196 11.0091 83.9117 9.85093 81.3575 9.05246V0.857403H64.4894V9.1059C61.8186 9.96062 59.3123 11.2102 57.0042 12.8365L50.4875 7.77193L40.1361 21.0907L46.7681 26.2439C45.8826 28.7094 45.3554 31.2733 45.1938 33.902L37 35.8629L40.9247 52.2671L46.6893 50.8881C49.529 48.0485 52.0926 45.4849 55.4635 42.114C50.983 29.954 59.9904 16.9552 73.012 16.9552C83.3366 16.9552 91.7073 25.326 91.7073 35.6506C91.7073 48.4026 79.1944 57.4065 67.1292 53.4C66.1655 54.3637 56.181 64.3482 54.6299 65.8993L65.753 71.1425L69.4527 63.2932C72.0083 63.6221 74.5581 63.5954 77.0645 63.2299L80.8542 70.9751L96.006 63.5617L92.2261 55.8362C94.0985 54.0551 95.7038 52.038 97.0152 49.8129L105.316 51.6713L109 35.2107L100.785 33.3721Z" fill="white"/>
<path d="M84.9939 30.8053L83.8103 27.8281L76.6878 34.9492L73.4884 31.7499L80.6109 24.6288L77.6337 23.4437C65.9806 18.8086 55.2073 31.5577 61.3224 42.2179C45.5914 57.949 59.0352 44.5065 40.1361 63.4057L45.6477 68.9174C56.6265 57.9386 45.9625 68.6042 67.0309 47.5356C77.7858 52.7514 89.4302 41.9504 84.9939 30.8053Z" fill="white"/>
</svg>
