<svg width="36" height="36" viewBox="0 0 36 36" fill="none" xmlns="http://www.w3.org/2000/svg">
<path d="M32.8359 3.23438H3.16406C1.41933 3.23438 0 4.6537 0 6.39844V16.9453C0 18.69 1.41933 20.1094 3.16406 20.1094H32.8359C34.5807 20.1094 36 18.69 36 16.9453V6.39844C36 4.6537 34.5807 3.23438 32.8359 3.23438ZM26.5078 9.5625C27.0903 9.5625 27.5625 10.0347 27.5625 10.6172C27.5625 11.1997 27.0903 11.6719 26.5078 11.6719C25.9253 11.6719 25.4531 11.1997 25.4531 10.6172C25.4531 10.0347 25.9253 9.5625 26.5078 9.5625ZM30.7266 15.8906H5.27344C4.69048 15.8906 4.21875 15.4189 4.21875 14.8359C4.21875 14.253 4.69048 13.7812 5.27344 13.7812H30.7266C31.3095 13.7812 31.7812 14.253 31.7812 14.8359C31.7812 15.4189 31.3095 15.8906 30.7266 15.8906ZM30.7266 11.6719C30.1441 11.6719 29.6719 11.1997 29.6719 10.6172C29.6719 10.0347 30.1441 9.5625 30.7266 9.5625C31.309 9.5625 31.7812 10.0347 31.7812 10.6172C31.7812 11.1997 31.309 11.6719 30.7266 11.6719Z" fill="black"/>
<path d="M9.56246 22.2188C8.9795 22.2188 8.50778 22.6905 8.50778 23.2734V24.8854C8.50778 27.3923 7.11426 29.6459 4.87199 30.7675C4.35084 31.0281 4.13969 31.6615 4.40027 32.1827C4.65958 32.6998 5.28902 32.9158 5.81544 32.6544C8.77764 31.1733 10.6171 28.1967 10.6171 24.8854V23.2734C10.6171 22.6905 10.1454 22.2188 9.56246 22.2188Z" fill="black"/>
<path d="M26.4375 22.2188C25.8545 22.2188 25.3828 22.6905 25.3828 23.2734V24.8854C25.3828 28.1967 27.2223 31.1733 30.1845 32.6544C30.7105 32.9155 31.3402 32.7002 31.5997 32.1827C31.8603 31.6615 31.6491 31.0281 31.128 30.7675C28.8857 29.6459 27.4922 27.3923 27.4922 24.8854V23.2734C27.4922 22.6905 27.0205 22.2188 26.4375 22.2188Z" fill="black"/>
<path d="M19.0547 31.7109V23.2734C19.0547 22.6905 18.583 22.2188 18 22.2188C17.417 22.2188 16.9453 22.6905 16.9453 23.2734V31.7109C16.9453 32.2939 17.417 32.7656 18 32.7656C18.583 32.7656 19.0547 32.2939 19.0547 31.7109Z" fill="black"/>
<path d="M23.2734 31.7109V23.2734C23.2734 22.6905 22.8017 22.2188 22.2188 22.2188C21.6358 22.2188 21.1641 22.6905 21.1641 23.2734V31.7109C21.1641 32.2939 21.6358 32.7656 22.2188 32.7656C22.8017 32.7656 23.2734 32.2939 23.2734 31.7109Z" fill="black"/>
<path d="M14.8359 31.7109V23.2734C14.8359 22.6905 14.3642 22.2188 13.7812 22.2188C13.1983 22.2188 12.7266 22.6905 12.7266 23.2734V31.7109C12.7266 32.2939 13.1983 32.7656 13.7812 32.7656C14.3642 32.7656 14.8359 32.2939 14.8359 31.7109Z" fill="black"/>
</svg>
