<svg width="36" height="36" viewBox="0 0 36 36" fill="none" xmlns="http://www.w3.org/2000/svg">
<path d="M16.9453 21.1641C16.0005 21.1641 15.0848 21.4228 14.282 21.8936C14.6333 22.3388 14.9409 22.8156 15.1834 23.3347C16.2543 23.1581 17.3282 23.3778 18.2368 23.9851C19.409 24.7711 20.1094 26.0821 20.1094 27.4922C20.1094 28.075 19.6375 28.5469 19.0547 28.5469C18.4719 28.5469 18 28.075 18 27.4922C18 26.7866 17.6498 26.1307 17.0629 25.7371C16.8149 25.5715 16.3686 25.3707 15.7855 25.3971C15.8346 25.7401 15.8907 26.0813 15.8907 26.4375C15.8907 27.5471 15.6149 28.6177 15.1461 29.6016H21.1372C21.8252 28.69 22.2188 27.5891 22.2188 26.4375C22.2188 23.53 19.8529 21.1641 16.9453 21.1641Z" fill="black"/>
<path d="M12.7375 20.4041C13.9705 19.5441 15.4259 19.0547 16.9453 19.0547C18.5208 19.0547 19.9751 19.5601 21.175 20.4041C22.408 19.5441 23.8634 19.0547 25.3828 19.0547C26.9291 19.0547 28.3758 19.5812 29.6016 20.4445V14.7656H6.39844V19.3727C7.08069 19.1695 7.78931 19.0547 8.50781 19.0547C10.0833 19.0547 11.5376 19.5601 12.7375 20.4041V20.4041Z" fill="black"/>
<path d="M32.7656 0H3.23438C1.48975 0 0 1.41943 0 3.16406V8.4375H36V3.16406C36 1.41943 34.5103 0 32.7656 0ZM5.34183 6.32812C4.75928 6.32812 4.28714 5.85599 4.28714 5.27344C4.28714 4.69089 4.75928 4.21875 5.34183 4.21875C5.92438 4.21875 6.39651 4.69089 6.39651 5.27344C6.39651 5.85599 5.92438 6.32812 5.34183 6.32812ZM9.56058 6.32812C8.97803 6.32812 8.50589 5.85599 8.50589 5.27344C8.50589 4.69089 8.97803 4.21875 9.56058 4.21875C10.1431 4.21875 10.6153 4.69089 10.6153 5.27344C10.6153 5.85599 10.1431 6.32812 9.56058 6.32812ZM13.7793 6.32812C13.1968 6.32812 12.7246 5.85599 12.7246 5.27344C12.7246 4.69089 13.1968 4.21875 13.7793 4.21875C14.3619 4.21875 14.834 4.69089 14.834 5.27344C14.834 5.85599 14.3619 6.32812 13.7793 6.32812ZM30.6562 6.32812H18C17.4172 6.32812 16.9453 5.85626 16.9453 5.27344C16.9453 4.69061 17.4172 4.21875 18 4.21875H30.6562C31.2391 4.21875 31.7109 4.69061 31.7109 5.27344C31.7109 5.85626 31.2391 6.32812 30.6562 6.32812Z" fill="black"/>
<path d="M0 32.8359C0 34.5806 1.48975 36 3.23438 36H32.7656C34.5103 36 36 34.5806 36 32.8359V10.5469H0V32.8359ZM4.28906 13.7109C4.28906 13.1281 4.76093 12.6562 5.34375 12.6562H30.6562C31.2391 12.6562 31.7109 13.1281 31.7109 13.7109V30.6562C31.7109 31.2391 31.2391 31.7812 30.6562 31.7812H5.34375C4.76093 31.7812 4.28906 31.2391 4.28906 30.6562V13.7109Z" fill="black"/>
<path d="M13.7812 26.4375C13.7812 23.53 11.4153 21.1641 8.50781 21.1641C7.7731 21.1641 7.06448 21.358 6.39844 21.6508V23.4481C7.43143 23.1941 8.48914 23.2671 9.42242 23.7607C10.8097 24.494 11.6719 25.9236 11.6719 27.4922C11.6719 28.075 11.2 28.5469 10.6172 28.5469C10.0344 28.5469 9.5625 28.075 9.5625 27.4922C9.5625 26.7075 9.13101 25.9926 8.43668 25.6259C7.82062 25.2993 7.09937 25.3246 6.39844 25.6514V29.6016H12.6996C13.3877 28.69 13.7812 27.5891 13.7812 26.4375Z" fill="black"/>
<path d="M25.3828 21.1641C24.438 21.1641 23.5223 21.4228 22.7195 21.8936C23.0708 22.3388 23.3784 22.8153 23.6209 23.3344C24.6918 23.1578 25.7663 23.3778 26.6743 23.9851C27.8465 24.7711 28.5469 26.0821 28.5469 27.4922C28.5469 28.075 28.075 28.5469 27.4922 28.5469C26.9094 28.5469 26.4375 28.075 26.4375 27.4922C26.4375 26.7866 26.0873 26.1307 25.5004 25.7371C25.2529 25.5715 24.8066 25.3707 24.223 25.3971C24.2721 25.7401 24.3282 26.0813 24.3282 26.4375C24.3282 27.5471 24.0524 28.6177 23.5836 29.6016H29.6016V23.3177C28.6073 21.976 27.0618 21.1641 25.3828 21.1641V21.1641Z" fill="black"/>
</svg>
