<svg width="36" height="36" viewBox="0 0 36 36" fill="none" xmlns="http://www.w3.org/2000/svg">
<path d="M6.7782 13.4062V33.8156C6.7782 34.3981 7.25042 34.8703 7.83289 34.8703H9.03755V34.9453C9.03755 35.5278 9.50977 36 10.0922 36C10.6747 36 11.1469 35.5278 11.1469 34.9453V34.8703H24.8532V34.9453C24.8532 35.5278 25.3254 36 25.9079 36C26.4904 36 26.9626 35.5278 26.9626 34.9453V34.8703H28.1673C28.7497 34.8703 29.2219 34.3981 29.2219 33.8156V13.4062H6.7782ZM14.611 17.925H12.3517C11.7692 17.925 11.297 17.4528 11.297 16.8703C11.297 16.2879 11.7692 15.8156 12.3517 15.8156H14.611C15.1935 15.8156 15.6657 16.2879 15.6657 16.8703C15.6657 17.4528 15.1935 17.925 14.611 17.925Z" fill="black"/>
<path d="M29.2219 11.2969V1.05469C29.2219 0.472219 28.7497 0 28.1673 0H7.83289C7.25042 0 6.7782 0.472219 6.7782 1.05469V11.2969H29.2219ZM12.3517 6.77813H14.611C15.1935 6.77813 15.6657 7.25034 15.6657 7.83281C15.6657 8.41528 15.1935 8.8875 14.611 8.8875H12.3517C11.7692 8.8875 11.297 8.41528 11.297 7.83281C11.297 7.25034 11.7692 6.77813 12.3517 6.77813Z" fill="black"/>
</svg>
