<svg width="36" height="36" viewBox="0 0 36 36" fill="none" xmlns="http://www.w3.org/2000/svg">
<path d="M34.9167 15.3961H29.8284C29.231 15.3961 28.7451 15.8821 28.7451 16.4794V17.5037H22.3966V15.5293H26.6258V8.33409H27.2087C28.5484 8.33409 29.8426 7.93648 30.9513 7.18427C31.8566 6.57002 32.5877 5.75327 33.095 4.7966H34.9449C35.5276 4.7966 35.9999 4.32424 35.9999 3.74156C35.9999 3.15888 35.5276 2.68652 34.9449 2.68652H7.3523C6.76962 2.68652 6.29726 3.15888 6.29726 3.74156C6.29726 4.32424 6.76962 4.7966 7.3523 4.7966H9.21129C9.71866 5.75327 10.4497 6.57002 11.355 7.18427C12.4637 7.93641 13.7578 8.33409 15.0976 8.33409H17.6295V10.9169H11.1159C4.98656 10.9168 0 15.9034 0 22.0327V31.5492C0 32.5221 0.791508 33.3135 1.76428 33.3135H29.452C30.0347 33.3135 30.507 32.8412 30.507 32.2585C30.507 31.6758 30.0347 31.2034 29.452 31.2034H22.3966V26.6395H28.745V27.751C28.745 28.3483 29.2309 28.8343 29.8283 28.8343H34.9166C35.514 28.8343 35.9999 28.3483 35.9999 27.751V16.4794C36 15.8821 35.5141 15.3961 34.9167 15.3961ZM8.08896 29.4233H5.14343C4.56075 29.4233 4.08839 28.9509 4.08839 28.3682C4.08839 27.7856 4.56075 27.3132 5.14343 27.3132H8.08903C8.67171 27.3132 9.14407 27.7856 9.14407 28.3682C9.14407 28.9509 8.67171 29.4233 8.08896 29.4233Z" fill="black"/>
</svg>
