<svg width="36" height="36" viewBox="0 0 36 36" fill="none" xmlns="http://www.w3.org/2000/svg">
<path d="M16.9453 23.3438H19.0547V25.4531H16.9453V23.3438Z" fill="black"/>
<path d="M12.7266 23.3438H14.8359V25.4531H12.7266V23.3438Z" fill="black"/>
<path d="M12.7266 16.875H23.2734V21.2344H12.7266V16.875Z" fill="black"/>
<path d="M21.1641 23.3438H23.2734V25.4531H21.1641V23.3438Z" fill="black"/>
<path d="M2.10938 29.6719H33.8906V12.6562H2.10938V29.6719ZM10.6172 14.7656H25.3828V27.5625H10.6172V14.7656Z" fill="black"/>
<path d="M2.10938 31.7812H33.8906V36H2.10938V31.7812Z" fill="black"/>
<path d="M33.7846 8.4375C33.2946 6.03342 31.1638 4.21875 28.6172 4.21875H26.4018C25.9118 1.81467 23.781 0 21.2344 0H14.7656C12.219 0 10.0882 1.81467 9.59821 4.21875H7.38281C4.83618 4.21875 2.70538 6.03342 2.21539 8.4375H0V10.5469H36V8.4375H33.7846ZM11.7828 4.21875C12.2184 2.99103 13.3907 2.10938 14.7656 2.10938H21.2344C22.6093 2.10938 23.7816 2.99103 24.2172 4.21875H11.7828Z" fill="black"/>
</svg>
