<svg width="18" height="18" viewBox="0 0 18 18" fill="none" xmlns="http://www.w3.org/2000/svg">
<g clip-path="url(#clip0)">
<path d="M5.83594 11.6369H15.3634C15.5993 11.6369 15.8063 11.4809 15.8702 11.2543L17.9797 3.87131C18.025 3.71214 17.994 3.54117 17.8941 3.40892C17.7941 3.27708 17.6387 3.19922 17.4728 3.19922H4.61852L4.24155 1.50293C4.18799 1.26137 3.97375 1.08984 3.72656 1.08984H0.527344C0.235931 1.08984 0 1.32578 0 1.61719C0 1.90874 0.235931 2.14453 0.527344 2.14453H3.30331L5.20766 10.7139C4.64735 10.9575 4.25391 11.5152 4.25391 12.1642C4.25391 13.0365 4.96362 13.7462 5.83594 13.7462H15.3634C15.655 13.7462 15.8908 13.5104 15.8908 13.2189C15.8908 12.9275 15.655 12.6915 15.3634 12.6915H5.83594C5.54549 12.6915 5.30859 12.4552 5.30859 12.1642C5.30859 11.8732 5.54549 11.6369 5.83594 11.6369Z" fill="white"/>
<path d="M5.30859 15.3283C5.30859 16.2007 6.01831 16.9103 6.89076 16.9103C7.76308 16.9103 8.47279 16.2007 8.47279 15.3283C8.47279 14.4559 7.76308 13.7462 6.89076 13.7462C6.01831 13.7462 5.30859 14.4559 5.30859 15.3283Z" fill="white"/>
<path d="M12.7267 15.3283C12.7267 16.2007 13.4364 16.9103 14.3087 16.9103C15.1812 16.9103 15.8907 16.2007 15.8907 15.3283C15.8907 14.4559 15.1812 13.7462 14.3087 13.7462C13.4364 13.7462 12.7267 14.4559 12.7267 15.3283Z" fill="white"/>
</g>
<defs>
<clipPath id="clip0">
<rect width="18" height="18" fill="white"/>
</clipPath>
</defs>
</svg>
