<svg width="18" height="24" viewBox="0 0 18 24" fill="none" xmlns="http://www.w3.org/2000/svg">
<path d="M18 9C18 12.36 16.92 13.32 10.92 22.92C10.08 24.36 8.04 24.36 7.08 22.92C1.08 13.32 0 12.36 0 9C0 4.08 4.08 0 9 0C13.92 0 18 4.08 18 9ZM15.72 9C15.72 5.28 12.72 2.28 9 2.28C5.28 2.28 2.28 5.28 2.28 9C2.28 11.52 3 12.12 9 21.72C15 12.12 15.72 11.52 15.72 9ZM9 5.28C11.04 5.28 12.72 6.96 12.72 9C12.72 11.04 11.04 12.72 9 12.72C6.96 12.72 5.28 11.04 5.28 9C5.28 6.96 6.84 5.28 9 5.28Z" fill="white"/>
</svg>
