<svg width="18" height="18" viewBox="0 0 18 18" fill="none" xmlns="http://www.w3.org/2000/svg">
<path d="M7.875 5.6247V4.49969H1.125C0.505125 4.49969 0 5.00482 0 5.6247V7.8747H8.11237C7.956 7.18733 7.875 6.44707 7.875 5.6247Z" fill="white"/>
<path d="M17.9539 10.1247C17.1866 11.3071 16.0166 12.3128 14.3404 13.2758C14.0827 13.4232 13.7925 13.4997 13.5 13.4997C13.2075 13.4997 12.9172 13.4232 12.663 13.2781C10.9867 12.3128 9.81675 11.3059 9.04838 10.1247H0V15.7497C0 16.3707 0.505125 16.8747 1.125 16.8747H16.875C17.496 16.8747 18 16.3707 18 15.7497V10.1247H17.9539V10.1247ZM5.0625 13.4997H2.8125C2.502 13.4997 2.25 13.2477 2.25 12.9372C2.25 12.6267 2.502 12.3747 2.8125 12.3747H5.0625C5.373 12.3747 5.625 12.6267 5.625 12.9372C5.625 13.2477 5.373 13.4997 5.0625 13.4997Z" fill="white"/>
<path d="M17.6591 2.85837L13.7216 1.17087C13.5787 1.11012 13.4201 1.11012 13.2773 1.17087L9.33975 2.85837C9.13388 2.94612 9 3.14974 9 3.37474V5.62474C9 8.71962 10.1441 10.5286 13.2199 12.3005C13.3065 12.35 13.4032 12.3747 13.5 12.3747C13.5968 12.3747 13.6935 12.35 13.7801 12.3005C16.8559 10.5331 18 8.72412 18 5.62474V3.37474C18 3.14974 17.8661 2.94612 17.6591 2.85837ZM15.6274 5.41437L13.3774 8.22687C13.2694 8.35962 13.1074 8.43724 12.9375 8.43724C12.9296 8.43724 12.9206 8.43724 12.9139 8.43724C12.735 8.42937 12.5696 8.33712 12.4695 8.18749L11.3445 6.49999C11.1724 6.24124 11.2421 5.89249 11.5009 5.72037C11.7574 5.54937 12.1073 5.61687 12.2805 5.87674L12.9791 6.92412L14.7476 4.71237C14.9423 4.47049 15.2966 4.43224 15.5385 4.62462C15.7815 4.81699 15.8197 5.17137 15.6274 5.41437Z" fill="white"/>
</svg>
