<svg width="18" height="18" viewBox="0 0 18 18" fill="none" xmlns="http://www.w3.org/2000/svg">
<path d="M4.95866 0.30896L1.75195 3.51567H4.95866V0.30896Z" fill="white"/>
<path d="M9.79297 3.9375C10.0842 3.9375 10.3203 3.7014 10.3203 3.41016C10.3203 3.11891 10.0842 2.88281 9.79297 2.88281C9.50172 2.88281 9.26562 3.11891 9.26562 3.41016C9.26562 3.7014 9.50172 3.9375 9.79297 3.9375Z" fill="white"/>
<path d="M14.9781 2.63678V13.7812C14.9781 15.2351 13.7953 16.418 12.3414 16.418H4.07617C4.07617 17.2903 4.78587 18 5.6582 18H14.9746C15.8469 18 16.5566 17.2903 16.5566 16.418V4.21874C16.5566 3.34757 15.8488 2.63871 14.9781 2.63678V2.63678Z" fill="white"/>
<path d="M12.3418 0H6.01367V4.04297C6.01367 4.3342 5.77756 4.57031 5.48633 4.57031H1.44336V13.7812C1.44336 14.6536 2.15306 15.3633 3.02539 15.3633H12.3418C13.2141 15.3633 13.9238 14.6536 13.9238 13.7812V1.58203C13.9238 0.709699 13.2141 0 12.3418 0ZM3.81641 6.39844H6.27734C6.56858 6.39844 6.80469 6.63455 6.80469 6.92578C6.80469 7.21702 6.56858 7.45312 6.27734 7.45312H3.81641C3.52517 7.45312 3.28906 7.21702 3.28906 6.92578C3.28906 6.63455 3.52517 6.39844 3.81641 6.39844ZM11.5508 13.7812H3.81641C3.52517 13.7812 3.28906 13.5451 3.28906 13.2539C3.28906 12.9627 3.52517 12.7266 3.81641 12.7266H11.5508C11.842 12.7266 12.0781 12.9627 12.0781 13.2539C12.0781 13.5451 11.842 13.7812 11.5508 13.7812ZM11.5508 11.6719H3.81641C3.52517 11.6719 3.28906 11.4358 3.28906 11.1445C3.28906 10.8533 3.52517 10.6172 3.81641 10.6172H11.5508C11.842 10.6172 12.0781 10.8533 12.0781 11.1445C12.0781 11.4358 11.842 11.6719 11.5508 11.6719ZM11.5508 9.5625H3.81641C3.52517 9.5625 3.28906 9.32639 3.28906 9.03516C3.28906 8.74392 3.52517 8.50781 3.81641 8.50781H11.5508C11.842 8.50781 12.0781 8.74392 12.0781 9.03516C12.0781 9.32639 11.842 9.5625 11.5508 9.5625ZM12.0781 6.92578C12.0781 7.21702 11.842 7.45312 11.5508 7.45312H8.03516C7.74392 7.45312 7.50781 7.21702 7.50781 6.92578V6.22266C7.50781 5.43814 7.90529 4.74486 8.50934 4.33318C8.32186 4.07317 8.21094 3.75448 8.21094 3.41016C8.21094 2.53782 8.92064 1.82812 9.79297 1.82812C10.6653 1.82812 11.375 2.53782 11.375 3.41016C11.375 3.75448 11.2641 4.0732 11.0766 4.33318C11.6806 4.74486 12.0781 5.43814 12.0781 6.22266V6.92578Z" fill="white"/>
<path d="M9.79296 4.99219C9.11448 4.99219 8.5625 5.54418 8.5625 6.22266V6.39844H11.0234V6.22266C11.0234 5.54418 10.4714 4.99219 9.79296 4.99219Z" fill="white"/>
</svg>
