<svg width="18" height="18" viewBox="0 0 18 18" fill="none" xmlns="http://www.w3.org/2000/svg">
<g clip-path="url(#clip0)">
<path d="M14.1804 2.17429C14.0102 1.96572 13.8694 1.72486 13.7629 1.47748C13.088 -0.0867833 11.2509 0.000922191 11.2509 0.000922191H6.88523C5.45649 0.000922191 4.75614 0.790217 4.4133 1.53783C4.30529 1.77381 4.15908 2.00225 3.98345 2.20007C3.69358 2.52794 3.08415 2.59051 2.77115 2.68761C2.22343 2.85737 1.92476 3.25986 1.6135 3.96574C1.6135 3.96574 1.47858 4.27049 1.31332 4.64622C1.14795 5.02168 1.63842 5.32637 2.41002 5.32637H15.6815C16.4532 5.32637 16.89 5.00534 16.6566 4.60904L16.2348 3.89209C15.8431 3.22692 15.5798 2.98768 15.1659 2.68788C15.0042 2.57092 14.4655 2.5224 14.1804 2.17429ZM8.24537 1.38169H11.2023C11.7117 1.38169 12.0402 1.54266 12.2513 1.7565C12.4264 1.93381 12.4264 2.13418 12.3162 2.3128C12.1389 2.5999 11.2202 2.68755 10.4481 2.68755H7.60837C6.83682 2.68755 5.95509 2.60088 5.81724 2.33983C5.73447 2.1827 5.74213 1.96795 5.86142 1.78059C6.1952 1.25594 7.49423 1.38169 8.24537 1.38169Z" fill="#A9A9A9"/>
<path d="M14.0725 6.28125H3.9835C3.21195 6.28125 2.6651 6.90148 2.76089 7.66701L3.88673 16.6143C3.98258 17.3798 4.6865 18 5.45789 18H12.6757C13.4471 18 14.1468 17.3792 14.2384 16.6129L15.3045 7.66799C15.3954 6.90181 14.8446 6.28125 14.0725 6.28125ZM6.97901 16.0465C6.97901 16.423 6.65098 16.729 6.27329 16.729C5.89658 16.729 5.59086 16.4229 5.59086 16.0465V8.23672C5.59086 7.85897 5.89653 7.552 6.27329 7.552C6.6513 7.552 6.97901 7.85897 6.97901 8.23672V16.0465ZM9.80322 16.0465C9.80322 16.423 9.49625 16.729 9.12014 16.729C8.74278 16.729 8.41312 16.4229 8.41312 16.0465V8.23672C8.41312 7.85897 8.74278 7.552 9.12014 7.552C9.49625 7.552 9.80322 7.85897 9.80322 8.23672V16.0465ZM12.473 16.0465C12.473 16.423 12.1661 16.729 11.79 16.729C11.4126 16.729 11.0828 16.4229 11.0828 16.0465V8.23672C11.0828 7.85897 11.4126 7.552 11.79 7.552C12.1661 7.552 12.473 7.85897 12.473 8.23672V16.0465Z" fill="#A9A9A9"/>
</g>
<defs>
<clipPath id="clip0">
<rect width="18" height="18" fill="white"/>
</clipPath>
</defs>
</svg>
