<svg width="48" height="48" viewBox="0 0 48 48" fill="none" xmlns="http://www.w3.org/2000/svg">
<g clip-path="url(#clip0)">
<path d="M11.2004 31.6C8.55317 31.6 6.40039 33.7528 6.40039 36.4C6.40039 39.0473 8.55317 41.2 11.2004 41.2C13.8476 41.2 16.0004 39.0473 16.0004 36.4C16.0004 33.7528 13.8475 31.6 11.2004 31.6ZM11.2004 39.6C9.43555 39.6 8.00042 38.1648 8.00042 36.4C8.00042 34.6352 9.43564 33.2001 11.2004 33.2001C12.9651 33.2001 14.4004 34.6353 14.4004 36.4C14.4004 38.1648 12.9651 39.6 11.2004 39.6Z" fill="#CDCBCB"/>
<path d="M38.3996 31.6C35.7524 31.6 33.5996 33.7528 33.5996 36.4C33.5996 39.0473 35.7524 41.2 38.3996 41.2C41.0468 41.2 43.1996 39.0473 43.1996 36.4C43.1996 33.7528 41.0468 31.6 38.3996 31.6ZM38.3996 39.6C36.6348 39.6 35.1996 38.1648 35.1996 36.4C35.1996 34.6352 36.6349 33.2001 38.3996 33.2001C40.1645 33.2001 41.5996 34.6353 41.5996 36.4C41.5996 38.1648 40.1645 39.6 38.3996 39.6Z" fill="#CDCBCB"/>
<path d="M47.8731 27.1673L40.6731 15.9672C40.526 15.7384 40.2724 15.6 40.0003 15.6H31.2004C30.758 15.6 30.4004 15.9584 30.4004 16.4V36.3999C30.4004 36.8423 30.758 37.1999 31.2004 37.1999H34.4003V35.5999H32.0003V17.2H39.5635L46.4003 27.8352V35.6001H42.4003V37.2H47.2003C47.6427 37.2 48.0003 36.8424 48.0003 36.4V27.6C48.0004 27.4472 47.9564 27.296 47.8731 27.1673Z" fill="#CDCBCB"/>
<path d="M35.1995 26V20.4H41.5996V18.8H34.3996C33.9572 18.8 33.5996 19.1584 33.5996 19.5999V26.7999C33.5996 27.2423 33.9572 27.5999 34.3996 27.5999H46.3996V25.9999H35.1995V26Z" fill="#CDCBCB"/>
<path d="M31.2 10H0.799969C0.358406 10 0 10.3584 0 10.8V36.4C0 36.8424 0.358406 37.2 0.799969 37.2H7.2V35.6H1.60003V11.6H30.4V35.6H15.2V37.2H31.2C31.6424 37.2 32 36.8424 32 36.4V10.8C32 10.3584 31.6424 10 31.2 10Z" fill="#CDCBCB"/>
<path d="M5.5998 32.4H0.799805V34H5.5998V32.4Z" fill="#CDCBCB"/>
<path d="M30.3998 32.4H16.7998V34H30.3998V32.4Z" fill="#CDCBCB"/>
<path d="M47.2 32.4H44V34H47.2V32.4Z" fill="#CDCBCB"/>
<path d="M31.2002 13.2H3.2002V14.8H31.2002V13.2Z" fill="#CDCBCB"/>
<path d="M12.0004 35.6H10.4004V37.2H12.0004V35.6Z" fill="#CDCBCB"/>
<path d="M39.1996 35.6H37.5996V37.2H39.1996V35.6Z" fill="#CDCBCB"/>
<path d="M14.4002 6.79999H3.2002V8.40002H14.4002V6.79999Z" fill="#CDCBCB"/>
<path d="M1.60003 6.79999H0V8.40002H1.60003V6.79999Z" fill="#CDCBCB"/>
</g>
<defs>
<clipPath id="clip0">
<rect width="48" height="48" fill="white"/>
</clipPath>
</defs>
</svg>
