<svg width="12" height="12" viewBox="0 0 12 12" fill="none" xmlns="http://www.w3.org/2000/svg">
<path d="M9.33346 5.53176L3.9933 0.191706C3.86979 0.068097 3.70492 0 3.52911 0C3.35331 0 3.18843 0.068097 3.06492 0.191706L2.67166 0.584873C2.41576 0.841066 2.41576 1.25745 2.67166 1.51326L7.15591 5.99751L2.66668 10.4867C2.54317 10.6104 2.47498 10.7751 2.47498 10.9508C2.47498 11.1267 2.54317 11.2915 2.66668 11.4152L3.05995 11.8083C3.18356 11.9319 3.34833 12 3.52414 12C3.69994 12 3.86482 11.9319 3.98833 11.8083L9.33346 6.46336C9.45726 6.33936 9.52526 6.1738 9.52487 5.99781C9.52526 5.82112 9.45726 5.65566 9.33346 5.53176Z" fill="black"/>
</svg>
