<svg width="12" height="12" viewBox="0 0 12 12" fill="none" xmlns="http://www.w3.org/2000/svg">
<path d="M6.46824 9.33346L11.8083 3.9933C11.9319 3.86979 12 3.70492 12 3.52911C12 3.35331 11.9319 3.18843 11.8083 3.06492L11.4151 2.67166C11.1589 2.41576 10.7425 2.41576 10.4867 2.67166L6.00249 7.15591L1.5133 2.66668C1.3896 2.54317 1.2249 2.47498 1.0492 2.47498C0.8733 2.47498 0.7085 2.54317 0.5848 2.66668L0.1917 3.05995C0.0681 3.18356 0 3.34833 0 3.52414C0 3.69994 0.0681 3.86482 0.1917 3.98833L5.53664 9.33346C5.66064 9.45726 5.8262 9.52526 6.00219 9.52487C6.17888 9.52526 6.34434 9.45726 6.46824 9.33346Z" fill="black"/>
</svg>
