<svg width="18" height="18" viewBox="0 0 18 18" fill="none" xmlns="http://www.w3.org/2000/svg">
<g clip-path="url(#clip0)">
<path d="M15.5455 5.72725H13.0909V2.45453H1.63638C0.73226 2.45453 0 3.18679 0 4.09091V13.0909H1.63638C1.63638 14.445 2.73682 15.5455 4.09092 15.5455C5.44503 15.5455 6.54547 14.445 6.54547 13.0909H11.4546C11.4546 14.445 12.555 15.5455 13.9091 15.5455C15.2632 15.5455 16.3637 14.445 16.3637 13.0909H18V9L15.5455 5.72725ZM4.09092 14.3182C3.41182 14.3182 2.86365 13.77 2.86365 13.0909C2.86365 12.4118 3.41182 11.8636 4.09092 11.8636C4.77003 11.8636 5.3182 12.4118 5.3182 13.0909C5.3182 13.77 4.76999 14.3182 4.09092 14.3182ZM13.9091 14.3182C13.23 14.3182 12.6818 13.77 12.6818 13.0909C12.6818 12.4118 13.23 11.8636 13.9091 11.8636C14.5882 11.8636 15.1364 12.4118 15.1364 13.0909C15.1364 13.77 14.5882 14.3182 13.9091 14.3182ZM13.0909 9V6.95456H15.1363L16.7441 9H13.0909Z" fill="white"/>
</g>
<defs>
<clipPath id="clip0">
<rect width="18" height="18" fill="white"/>
</clipPath>
</defs>
</svg>
