<svg width="18" height="18" viewBox="0 0 18 18" fill="none" xmlns="http://www.w3.org/2000/svg">
<g clip-path="url(#clip0)">
<path d="M12.4553 10.6812C14.616 7.63009 13.8933 3.4052 10.8422 1.24501C7.7911 -0.91518 3.56622 -0.193052 1.40603 2.85857C-0.754161 5.90968 -0.0320334 10.1341 3.01959 12.2942C5.19733 13.8361 8.07655 13.9548 10.3735 12.5983L15.3644 17.5592C15.9033 18.1265 16.7999 18.1492 17.3672 17.6103C17.9344 17.072 17.9572 16.1754 17.4188 15.6081C17.4018 15.59 17.3852 15.5735 17.3672 15.5565L12.4553 10.6812ZM6.92651 11.1437C4.51546 11.1442 2.56071 9.191 2.55916 6.77995C2.55865 4.3689 4.51185 2.41415 6.92342 2.41311C9.33137 2.41208 11.2851 4.36219 11.2897 6.77014C11.2939 9.18171 9.34169 11.1396 6.92961 11.1437C6.92858 11.1437 6.92806 11.1437 6.92651 11.1437Z" fill="white"/>
</g>
<defs>
<clipPath id="clip0">
<rect width="18" height="18" fill="white"/>
</clipPath>
</defs>
</svg>
