<svg width="64" height="64" viewBox="0 0 64 64" fill="none" xmlns="http://www.w3.org/2000/svg">
<path d="M56.6978 29.8245C56.5093 27.4971 55.9932 25.2329 55.1561 23.063L60.9236 18.4788L51.5514 6.86508L45.8188 11.4207C43.8396 10.0976 41.6993 9.07599 39.4289 8.37165V1.14261H24.435V8.41879C22.061 9.17275 19.8332 10.275 17.7815 11.7096L11.9889 7.24206L2.78765 18.9908L8.68276 23.5366C7.89565 25.7115 7.42702 27.9731 7.28338 30.292L0 32.0217L3.48862 46.4922L8.61271 45.2758C11.1369 42.7709 13.4156 40.5095 16.412 37.5359C12.4293 26.8093 20.4359 15.3428 32.0107 15.3428C41.1881 15.3428 48.6287 22.7269 48.6287 31.8344C48.6287 43.0833 37.5061 51.0258 26.7815 47.4916C25.9249 48.3417 17.0498 57.1492 15.671 58.5175L25.5582 63.1426L28.8468 56.2186C31.1185 56.5087 33.385 56.4851 35.6129 56.1627L38.9815 62.9949L52.4498 56.4554L49.0899 49.6406C50.7542 48.0694 52.1812 46.2901 53.3468 44.3273L60.7253 45.9666L64 31.4464L56.6978 29.8245Z" fill="#C22532"/>
<path d="M42.6612 27.5603L41.6092 24.934L35.278 31.2157L32.4341 28.3935L38.7652 22.1118L36.1188 21.0664C25.7605 16.9777 16.1843 28.224 21.6199 37.6276C7.6368 51.5043 19.5868 39.6464 2.78764 56.3178L7.68684 61.1798C17.4458 51.4951 7.96667 60.9035 26.6941 42.3184C36.254 46.9194 46.6046 37.3916 42.6612 27.5603Z" fill="#C22532"/>
</svg>
